<?xml version="1.0" encoding="UTF-8"?>
<svg xmlns="http://www.w3.org/2000/svg" xmlns:xlink="http://www.w3.org/1999/xlink" version="1.1" viewBox="0 0 480 1600">
  <!-- Generator: Adobe Illustrator 29.8.6, SVG Export Plug-In . SVG Version: 2.1.1 Build 1)  -->
  <defs>
    <linearGradient id="_名称未設定グラデーション_4" data-name="名称未設定グラデーション 4" x1="303.752" y1="1454.481" x2="303.752" y2="1420.179" gradientTransform="translate(-127.504 -1278.394)" gradientUnits="userSpaceOnUse">
      <stop offset=".283" stop-color="#fff"/>
      <stop offset="1" stop-color="#000"/>
    </linearGradient>
    <linearGradient id="_名称未設定グラデーション_41" data-name="名称未設定グラデーション 4" x1="544.326" y1="2665.037" x2="544.326" y2="2630.735" gradientTransform="translate(-368.078 -1210.556)" xlink:href="#_名称未設定グラデーション_4"/>
  </defs>
  <g id="strap">
    <g id="part-belt">
      <rect x="151.248" y="151.344" width="50" height="466.113" transform="translate(352.496 768.8) rotate(180)" fill="#c46030" data-zone="belt" stroke="#000" stroke-miterlimit="10"/>
      <g>
        <path d="M277.845,330.943v65.564c0,.242,0,.485,0,.729,0,.881.001,1.767.001,2.647,0,2.1-.007,4.168-.052,6.056l-.07,4.505-.176,4.467c-.461,11.903-1.702,23.537-3.823,34.649-2.176,11.079-5.302,21.581-9.669,31.019-4.369,9.459-9.967,17.766-16.98,25.287-3.526,3.756-7.436,7.33-11.708,10.838-4.301,3.503-8.972,6.932-14.008,10.458-5.041,3.534-10.421,7.154-16.073,11.183-5.626,4.006-11.548,8.466-17.398,13.678h.001c-2.934,2.591-5.827,5.45-8.642,8.439l-.002.002-.003.003c-2.8,3.049-5.512,6.282-8.043,9.732h0c-5.042,6.907-9.324,14.596-12.453,22.509-3.139,7.912-5.25,15.971-6.58,23.841-1.333,7.879-1.91,15.584-2.034,23.079l-.008.5,50.994.88.007-.502c.146-10.837,1.742-20.749,4.987-28.889,3.288-8.157,8.112-14.775,15.736-21.546l.009-.008-.007.006c7.544-6.767,17.687-13.402,28.775-21.141,5.536-3.879,11.295-8.074,17.003-12.725h.001c5.705-4.68,11.361-9.814,16.668-15.474,5.297-5.674,10.231-11.839,14.605-18.357,4.38-6.515,8.197-13.369,11.432-20.364,6.476-14.015,10.653-28.47,13.45-42.706v-.002c2.727-14.249,4.169-28.366,4.717-42.255l.202-5.208.084-5.179c.049-2.277.057-4.384.057-6.458,0-.887-.001-1.767-.001-2.653,0-.271,0-.543,0-.816v-19.379s0-46.412,0-46.412" fill="#c46030" data-zone="belt" stroke="#000" stroke-linecap="round" stroke-linejoin="round"/>
        <line x1="328.845" y1="330.943" x2="277.845" y2="330.943" fill="#c46030" data-zone="belt" stroke="#000" stroke-miterlimit="10"/>
      </g>
      <rect x="151.248" y="645.036" width="50" height="800" transform="translate(352.496 2090.072) rotate(180)" fill="#c46030" data-zone="belt" stroke="#000" stroke-miterlimit="10"/>
    </g>
    <g id="part-rear">
      <rect id="rivets" x="154.116" y="153.939" width="44.265" height="13.728" transform="translate(352.496 321.606) rotate(180)" fill="url(#_名称未設定グラデーション_4)"/>
      <path data-zone="rear" fill="#c46030" d="M148.949,159.661l-.033-.033c.1.836.268,1.606.435,2.342l.201.703c1.037,3.714,3.078,6.825,6.022,9.234l.067.067c.033,0,.602.535,1.94,1.271.033,0,.736.368.736.368,1.873.937,7.427,3.178,17.798,3.513h.535c10.338-.502,15.858-2.844,17.765-3.814l.703-.368c1.305-.769,1.907-1.338,1.907-1.338l.067-.067c2.911-2.442,4.918-5.587,5.922-9.334l.201-.703c.234-1.004.401-2.175.502-3.412h.033v-2.576c0-1.472-.033-2.844-.1-4.081-.034-.703-.067-1.405-.134-2.108l.033.033c-.1-1.004-.167-2.007-.301-3.044,0,0-2.7-25.825-12.355-51.169h-29.299c.023.061.046.123.07.184-7.059,18.601-10.538,37.235-11.743,45.766-.535,3.312-.87,6.356-1.037,9.167,0,.435,0,.836-.067,1.238,0,1.238-.067,2.609-.067,4.082s.067,2.676.201,4.081ZM176.248,163.397c-1.674,0-3-1.326-3-3s1.326-3,3-3c1.605,0,3,1.326,3,3s-1.326,3-3,3ZM192.373,157.397c1.605,0,3,1.326,3,3s-1.326,3-3,3-3-1.326-3-3,1.326-3,3-3ZM176.265,108.241c2.375,0,4.282,1.907,4.282,4.282s-1.907,4.282-4.282,4.282-4.282-1.907-4.282-4.282c0-2.342,1.907-4.282,4.282-4.282ZM160.123,157.397c1.605,0,3,1.326,3,3s-1.326,3-3,3-3-1.326-3-3,1.326-3,3-3Z"/>
    </g>
    <g id="part-front">
      <g>
        <rect id="rivets1" data-name="rivets" x="154.116" y="1432.333" width="44.265" height="13.728" fill="url(#_名称未設定グラデーション_41)"/>
        <path data-zone="front" fill="#c46030" d="M203.547,1440.339l.033.033c-.1-.836-.268-1.606-.435-2.342l-.201-.703c-1.037-3.714-3.078-6.825-6.022-9.234l-.067-.067c-.033,0-.602-.535-1.94-1.271-.033,0-.736-.368-.736-.368-1.873-.937-7.427-3.178-17.798-3.513h-.535c-10.338.502-15.858,2.844-17.765,3.814l-.703.368c-1.305.769-1.907,1.338-1.907,1.338l-.067.067c-2.911,2.442-4.918,5.587-5.922,9.334l-.201.703c-.234,1.004-.401,2.175-.502,3.412h-.033v2.576c0,1.472.033,2.844.1,4.081.034.703.067,1.405.134,2.108l-.033-.033c.1,1.004.167,2.007.301,3.044,0,0,2.7,25.825,12.355,51.169h29.299c-.023-.061-.046-.123-.07-.184,7.059-18.601,10.538-37.235,11.743-45.766.535-3.312.87-6.356,1.037-9.167,0-.435,0-.836.067-1.238,0-1.238.067-2.609.067-4.082s-.067-2.676-.201-4.081ZM176.248,1436.603c1.674,0,3,1.326,3,3s-1.326,3-3,3c-1.605,0-3-1.326-3-3s1.326-3,3-3ZM160.123,1442.603c-1.605,0-3-1.326-3-3s1.326-3,3-3,3,1.326,3,3-1.326,3-3,3ZM176.231,1491.759c-2.375,0-4.282-1.907-4.282-4.282s1.907-4.282,4.282-4.282,4.282,1.907,4.282,4.282c0,2.342-1.907,4.282-4.282,4.282ZM192.373,1442.603c-1.605,0-3-1.326-3-3s1.326-3,3-3,3,1.326,3,3-1.326,3-3,3Z"/>
      </g>
    </g>
    <path id="logo" d="M181.22,1456.758c1.519-1.545,4.083-4.134,7.702-7.778-.154-.026-.309-.067-.459-.126-.02-.008-.041-.014-.06-.022-.088-.037-.172-.081-.254-.127-.049-.028-.094-.06-.14-.092-.029-.019-.06-.039-.087-.059-.057-.043-.11-.09-.162-.136-.014-.012-.028-.024-.042-.036-.052-.05-.103-.104-.151-.159-.28-.32-.473-.708-.554-1.123-.654.726-1.563,1.718-2.728,2.98-.619.668-1,1.078-1.138,1.23l.132.11c.879-.929,1.421-1.476,1.625-1.641.204-.164.363-.198.478-.101l.969.813-2.614,2.434c-1.286,1.195-2.464,2.296-3.54,3.307-.003-.001-.006-.002-.009-.003-1.695-.717-3.312-.879-4.85-.488-1.539.391-2.566,1.197-3.082,2.416-.507,1.202-.374,2.638.402,4.316-2.601.149-4.298.322-5.089.522-1.021.25-1.843.602-2.465,1.057-.623.456-1.058.977-1.306,1.563-.372.877-.277,1.874.287,2.988.563,1.112,1.69,2.026,3.386,2.744,2.071.876,4.058,1.068,5.966.576,1.907-.493,3.151-1.425,3.731-2.795.6-1.418.24-3.352-1.072-5.803,2.084.014,3.796-.254,5.137-.803,1.02-.414,1.687-.997,2.003-1.742.318-.747.2-1.56-.352-2.439-.383-.612-.94-1.139-1.662-1.58v-.003ZM174.437,1461.39c.179-.421.461-.822.85-1.206.387-.383.729-.614,1.031-.692.178-.047.339-.059.487-.047-.975.936-1.807,1.744-2.491,2.425.009-.145.05-.304.124-.481h0ZM179.886,1457.284c-.842.833-1.614,1.599-2.312,2.297-.081-.044-.163-.086-.253-.125.71-.701,1.496-1.47,2.357-2.306.071.043.141.088.209.134h-.001ZM174.463,1462.4c-.006-.014-.012-.028-.018-.042.73-.761,1.651-1.691,2.76-2.788.085.047.158.101.218.162-1.129,1.126-2.064,2.07-2.808,2.831-.056-.048-.107-.101-.151-.163ZM174.761,1462.948c-.016.001-.031.003-.045.005-.005-.009-.008-.017-.012-.027.019.008.039.015.058.022h0ZM176.588,1462.135c-.413.369-.789.578-1.132.633-.02.003-.04.003-.059.006.62-.656,1.362-1.429,2.227-2.324-.018.134-.054.276-.119.429-.196.467-.502.887-.915,1.257h-.001ZM175.11,1462.773c-.096-.011-.189-.034-.277-.071-.003-.001-.006-.003-.008-.005.724-.757,1.632-1.692,2.72-2.798.009.017.02.033.027.051.032.075.048.157.057.239-.994,1.012-1.834,1.874-2.519,2.584ZM177.751,1459.689c.69-.701,1.451-1.469,2.281-2.304.07.052.14.105.204.162-.825.833-1.582,1.6-2.27,2.299-.066-.056-.14-.107-.217-.157h.001ZM184.355,1453.404c-1.177,1.181-2.263,2.272-3.26,3.277-.075-.044-.154-.085-.233-.127,1.237-1.235,3.188-3.168,5.852-5.796l.147.13-2.507,2.516h0ZM186.555,1450.635l.047.041-2.536,2.49c-1.216,1.193-2.333,2.293-3.357,3.306-.07-.036-.144-.07-.218-.104,1.266-1.214,3.288-3.124,6.066-5.732h-.001ZM174.021,1458.262c.356-.835,1.033-1.391,2.024-1.667.991-.277,2.012-.189,3.06.261.098.042.192.087.284.133-.898.848-1.717,1.625-2.455,2.331-.279-.071-.577-.101-.899-.083-.458.028-.932.2-1.425.519-.315.204-.564.445-.759.711-.152-.853-.098-1.589.169-2.207v.002ZM175.004,1469.244c-.205.654-.636,1.232-1.294,1.74-.657.505-1.414.816-2.273.933-.859.117-1.688.049-2.486-.203-1.1-.347-1.929-.937-2.487-1.768-.558-.834-.701-1.681-.426-2.544.286-.907.922-1.681,1.91-2.318.941-.609,2.557-1.163,4.844-1.663-.869.907-1.627,1.744-2.268,2.509-.361.43-.642.804-.847,1.132-.205.324-.282.509-.23.555.06.051.247-.073.557-.365.312-.295.975-1.023,1.991-2.185.479-.548.91-1.033,1.295-1.46.041.068.082.137.121.204-.877.919-1.653,1.757-2.323,2.515-.372.416-.67.776-.903,1.082-.231.304-.333.47-.305.496.033.029.202-.107.505-.406.303-.301.972-1.021,2.009-2.164.426-.47.812-.892,1.163-1.273.043.074.083.145.124.218-.82.871-1.552,1.668-2.189,2.386-.371.419-.673.777-.909,1.08-.236.301-.341.464-.316.484.028.025.192-.116.492-.419.298-.302.966-1.026,2.002-2.171.378-.417.725-.8,1.042-1.147.611,1.095,1,1.959,1.164,2.593.217.84.231,1.56.04,2.161v-.002ZM181.192,1460.565c-.24.559-.789,1.037-1.644,1.429-.474.219-1.181.414-2.119.586.443-.292.763-.661.954-1.113.187-.443.176-.838-.034-1.189-.068-.113-.157-.218-.256-.316.682-.704,1.433-1.476,2.253-2.314.273.254.5.54.675.862.392.721.449,1.406.171,2.054h0Z" fill="#7c7c7c"/>
  </g>
  <g id="hardware">
    <g id="hardware-buckle">
      <path fill="#1a1a1a" d="M151.248,658.305v-13.58h50v13.58h5v-53h-6.596c-1.839-5.956-11.615-10.502-23.404-10.502s-21.566,4.546-23.404,10.502h-6.596v53h5ZM151.248,617.305h50v15h-50v-15Z" stroke="#7c7c7c" stroke-miterlimit="10"/>
      <path fill="#1a1a1a" d="M151.248,634.607v-7.891h50v7.891h6.5v-16.08l-22.898-16.028c-4.751-3.326-12.454-3.326-17.205,0l-22.898,16.028v16.08h6.5ZM149.748,620.465l20.765-14.536c.666-.468,1.531-.876,2.522-1.157.99-.282,2.101-.434,3.213-.434,1.112,0,2.223.152,3.213.434.992.28,1.857.689,2.522,1.157l20.765,14.536v1.806h-53v-1.806Z" stroke="#7c7c7c" stroke-miterlimit="10"/>
      <path fill="#1a1a1a" d="M278.752,338.514v-7.891h50v7.891h6.5v-16.08l-22.898-16.028c-4.751-3.326-12.454-3.326-17.205,0l-22.898,16.028v16.08h6.5ZM277.252,324.373l20.765-14.536c.666-.468,1.531-.876,2.522-1.157.99-.282,2.101-.434,3.213-.434,1.112,0,2.223.152,3.213.434.992.28,1.857.689,2.522,1.157l20.765,14.536v1.806h-53v-1.806Z" stroke="#7c7c7c" stroke-miterlimit="10"/>
    </g>
  </g>
</svg>
